<svg width="226" height="51" viewBox="0 0 226 51" fill="none" xmlns="http://www.w3.org/2000/svg">
<path d="M57.3181 16.6928H63.2207C64.2755 16.6928 65.2257 16.9022 66.071 17.3212C66.9164 17.7401 67.6346 18.3087 68.2256 19.0269C68.8241 19.7451 69.2804 20.5867 69.5946 21.5518C69.9163 22.5094 70.0772 23.5305 70.0772 24.6153C70.0772 25.745 69.9089 26.7961 69.5722 27.7686C69.2356 28.7412 68.7642 29.5865 68.1583 30.3047C67.5523 31.0154 66.8304 31.5765 65.9925 31.988C65.1546 32.392 64.2307 32.5939 63.2207 32.5939H57.3181V16.6928ZM58.9901 31.0566H62.5362C63.3741 31.0566 64.1484 30.9144 64.8591 30.6301C65.5698 30.3384 66.1832 29.9194 66.6994 29.3733C67.2156 28.8197 67.6196 28.1464 67.9114 27.3534C68.2032 26.5529 68.349 25.6477 68.349 24.6377C68.349 23.538 68.2032 22.5842 67.9114 21.7762C67.6196 20.9682 67.2119 20.3024 66.6882 19.7787C66.172 19.2551 65.5586 18.866 64.8479 18.6117C64.1371 18.3573 63.3666 18.2301 62.5362 18.2301H58.9901V31.0566ZM88.8323 24.6602C88.8323 25.8871 88.6714 27.013 88.3497 28.0379C88.0355 29.0554 87.5754 29.9344 86.9695 30.675C86.3635 31.4082 85.6154 31.9805 84.7251 32.392C83.8423 32.8034 82.8286 33.0092 81.684 33.0092C80.5469 33.0092 79.5332 32.8034 78.6429 32.392C77.7602 31.9805 77.0158 31.4082 76.4098 30.675C75.8038 29.9344 75.3438 29.0554 75.0296 28.0379C74.7153 27.013 74.5582 25.8871 74.5582 24.6602C74.5582 23.4408 74.7153 22.3186 75.0296 21.2937C75.3438 20.2688 75.8038 19.3897 76.4098 18.6566C77.0158 17.9234 77.7602 17.3511 78.6429 16.9396C79.5332 16.5282 80.5469 16.3224 81.684 16.3224C82.8286 16.3224 83.8423 16.5282 84.7251 16.9396C85.6154 17.3511 86.3635 17.9234 86.9695 18.6566C87.5754 19.3897 88.0355 20.2688 88.3497 21.2937C88.6714 22.3186 88.8323 23.4408 88.8323 24.6602ZM87.1266 24.6602C87.1266 23.5829 86.9844 22.6216 86.7001 21.7762C86.4233 20.9308 86.0381 20.2164 85.5443 19.6329C85.058 19.0418 84.482 18.593 83.8162 18.2863C83.1578 17.972 82.4471 17.8149 81.684 17.8149C80.921 17.8149 80.2065 17.972 79.5407 18.2863C78.8823 18.593 78.31 19.0418 77.8238 19.6329C77.3375 20.2164 76.9559 20.9308 76.6791 21.7762C76.4023 22.6216 76.2639 23.5829 76.2639 24.6602C76.2639 25.7375 76.4023 26.6988 76.6791 27.5442C76.9559 28.3895 77.3375 29.1077 77.8238 29.6987C78.31 30.2898 78.8823 30.7424 79.5407 31.0566C80.2065 31.3633 80.921 31.5167 81.684 31.5167C82.4471 31.5167 83.1578 31.3633 83.8162 31.0566C84.482 30.7424 85.058 30.2898 85.5443 29.6987C86.0381 29.1077 86.4233 28.3895 86.7001 27.5442C86.9844 26.6988 87.1266 25.7375 87.1266 24.6602ZM95.6026 16.6928L103.693 30.4282V16.6928H105.388V32.5939H103.11L95.019 18.8473V32.5939H93.3246V16.6928H95.6026ZM116.602 16.6928L122.392 32.5939H120.597L118.835 27.7237H112.001L110.239 32.5939H108.421L114.279 16.6928H116.602ZM115.412 18.2526L112.562 26.2312H118.252L115.412 18.2526ZM127.659 16.6928V27.3983C127.659 28.0492 127.779 28.6327 128.018 29.1489C128.257 29.6651 128.568 30.1027 128.949 30.4618C129.339 30.8134 129.772 31.0865 130.251 31.281C130.737 31.468 131.224 31.5615 131.71 31.5615C132.234 31.5615 132.754 31.4755 133.27 31.3035C133.786 31.1239 134.25 30.8621 134.661 30.5179C135.073 30.1738 135.406 29.7474 135.66 29.2387C135.922 28.7225 136.053 28.124 136.053 27.4432V16.6928H137.759V27.331C137.759 28.2586 137.579 29.0778 137.22 29.7885C136.861 30.4992 136.393 31.0977 135.817 31.584C135.249 32.0628 134.605 32.4256 133.887 32.6725C133.169 32.9269 132.451 33.054 131.732 33.054C131.044 33.054 130.356 32.9306 129.668 32.6837C128.987 32.4368 128.37 32.074 127.816 31.5952C127.27 31.1089 126.825 30.5067 126.481 29.7885C126.137 29.0703 125.965 28.2362 125.965 27.2861V16.6928H127.659ZM152.87 16.6928V23.6053H161.522V16.6928H163.217V32.5939H161.522V25.0978H152.87V32.5939H151.176V16.6928H152.87ZM182.82 24.3664C182.82 25.638 182.659 26.7948 182.337 27.8367C182.015 28.8632 181.533 29.7518 180.889 30.5026C180.261 31.2533 179.472 31.8279 178.522 32.2262C177.587 32.6246 176.5 32.8238 175.258 32.8238C173.971 32.8238 172.853 32.6246 171.903 32.2262C170.953 31.8126 170.164 31.238 169.536 30.5026C168.908 29.7518 168.44 28.8555 168.134 27.8137C167.828 26.7718 167.674 25.6151 167.674 24.3434C167.674 22.658 167.95 21.1872 168.502 19.9308C169.053 18.6745 169.888 17.6939 171.007 16.9891C172.141 16.2843 173.565 15.9319 175.281 15.9319C176.921 15.9319 178.3 16.2843 179.418 16.9891C180.537 17.6786 181.379 18.6591 181.946 19.9308C182.528 21.1872 182.82 22.6657 182.82 24.3664ZM169.858 24.3664C169.858 25.7453 170.049 26.9327 170.432 27.9286C170.815 28.9245 171.405 29.6905 172.202 30.2268C173.014 30.763 174.033 31.0312 175.258 31.0312C176.5 31.0312 177.511 30.763 178.292 30.2268C179.089 29.6905 179.679 28.9245 180.062 27.9286C180.445 26.9327 180.636 25.7453 180.636 24.3664C180.636 22.298 180.207 20.6816 179.349 19.5171C178.491 18.3374 177.135 17.7475 175.281 17.7475C174.04 17.7475 173.014 18.0156 172.202 18.5519C171.405 19.0728 170.815 19.8312 170.432 20.8271C170.049 21.8077 169.858 22.9874 169.858 24.3664ZM172.041 12.8523C172.041 12.454 172.148 12.1705 172.363 12.002C172.577 11.8181 172.83 11.7262 173.121 11.7262C173.412 11.7262 173.665 11.8181 173.88 12.002C174.094 12.1705 174.201 12.454 174.201 12.8523C174.201 13.2354 174.094 13.5265 173.88 13.7257C173.665 13.9095 173.412 14.0014 173.121 14.0014C172.83 14.0014 172.577 13.9095 172.363 13.7257C172.148 13.5265 172.041 13.2354 172.041 12.8523ZM176.362 12.8523C176.362 12.454 176.461 12.1705 176.66 12.002C176.875 11.8181 177.128 11.7262 177.419 11.7262C177.71 11.7262 177.963 11.8181 178.177 12.002C178.392 12.1705 178.499 12.454 178.499 12.8523C178.499 13.2354 178.392 13.5265 178.177 13.7257C177.963 13.9095 177.71 14.0014 177.419 14.0014C177.128 14.0014 176.875 13.9095 176.66 13.7257C176.461 13.5265 176.362 13.2354 176.362 12.8523ZM198.067 16.6928V18.2301H189.393V23.6053H196.934V25.1427H189.393V32.5939H187.698V16.6928H198.067ZM213.13 16.6928V18.2301H204.209V23.6053H212.603V25.1427H204.209V31.0566H213.523V32.5939H202.515V16.6928H213.13Z" fill="white"/>
<path d="M9.44592 46.566C6.47353 46.899 3.54904 47.5079 0.765656 48.5071V0.765656H42.1111V22.2379M9.44592 46.566V39.3131M9.44592 46.566C12.4748 46.2266 15.5533 46.1737 18.583 46.2865M9.44592 46.566L18.583 46.2865M9.44592 16.7556V24.7506M9.44592 24.7506L12.8723 22.2379M9.44592 24.7506L6.24793 22.2379M9.44592 24.7506V32.0603M9.44592 32.0603L13.786 28.6339M9.44592 32.0603L4.87736 28.6339M9.44592 32.0603V39.3131M9.44592 39.3131L4.87736 35.7151M9.44592 39.3131L13.786 35.7151M18.583 46.2865V39.3131M27.7202 47.034C26.5264 46.8962 25.3056 46.7656 24.0653 46.6515C22.2712 46.4863 20.4363 46.3554 18.583 46.2865M27.7202 47.034C33.3935 47.6889 38.4573 48.5071 42.1111 48.5071V22.2379M27.7202 47.034V35.7151H19.4967M27.7202 47.034V22.2379H33.8877M18.583 39.3131H24.0653V46.6515M18.583 39.3131V35.7151H19.4967M42.1111 22.2379H33.8877M33.8877 22.2379V11.2733H19.4967V35.7151" stroke="white" stroke-width="1.53131"/>
</svg>
