<svg width="160" height="196" viewBox="0 0 160 196" fill="none" xmlns="http://www.w3.org/2000/svg">
<path d="M159.367 41.1727C112.31 44.3171 18.7922 66.1739 21.1795 128.446C23.5668 190.718 67.8997 81.5454 89.7677 19.175L63.7409 186.666" stroke="#6A8043" stroke-width="1.01235"/>
<path d="M83.865 115.24C85.8483 111.975 87.8315 108.71 88.5538 107.903C89.1877 107.194 87.9855 111.337 88.2285 112.444C88.341 112.956 89.2597 112.985 90.0523 112.823C93.4138 112.137 99.6657 105.201 103.252 100.861C103.362 100.727 102.561 101.155 102.105 101.77C101.649 102.385 101.37 103.151 101.561 103.812C101.752 104.473 102.421 105.007 103.358 105.062C111.015 105.515 117.776 95.9137 118.121 95.4462C118.558 94.8544 116.623 96.9519 116.48 98.0156C116.349 98.9894 121.073 96.9975 125.73 94.8751C127.24 94.187 128.004 96.1568 129.566 96.2763C131.915 95.2552 134.504 93.2832 138.024 89.2519C140.363 86.3701 143.826 81.7905 147.395 77.0723" stroke="#6A8043" stroke-linecap="round"/>
</svg>
